<?xml version="1.0" encoding="iso-8859-1"?>
<!-- Generator: Adobe Illustrator 19.0.0, SVG Export Plug-In . SVG Version: 6.00 Build 0)  -->
<svg version="1.1" id="Capa_1" xmlns="http://www.w3.org/2000/svg" xmlns:xlink="http://www.w3.org/1999/xlink" x="0px" y="0px"
	 viewBox="0 0 512 512" style="enable-background:new 0 0 512 512;" xml:space="preserve">
	<g>
		<path d="M437.02,74.981C388.667,26.629,324.38,0,256,0S123.333,26.629,74.98,74.981C26.629,123.333,0,187.62,0,256
			s26.629,132.668,74.98,181.02C123.333,485.371,187.62,512,256,512s132.667-26.629,181.02-74.98
			C485.371,388.668,512,324.38,512,256S485.371,123.333,437.02,74.981z M256,482C131.383,482,30,380.617,30,256S131.383,30,256,30
			s226,101.383,226,226S380.617,482,256,482z"/>
		<path d="M256,60.5C148.201,60.5,60.5,148.201,60.5,256S148.201,451.5,256,451.5S451.5,363.799,451.5,256S363.799,60.5,256,60.5z
			 M383.095,361.882l-24.821-24.821l-21.213,21.213l24.821,24.821c-25.108,20.952-56.494,34.614-90.882,37.718v-36.069h-30v36.069
			c-34.388-3.104-65.774-16.766-90.882-37.718l24.821-24.821l-21.213-21.213l-24.821,24.821
			C107.953,336.774,94.291,305.388,91.187,271h35.176v-30H91.187c3.104-34.388,16.766-65.774,37.719-90.882l24.821,24.822
			l21.213-21.213l-24.821-24.821c25.108-20.952,56.494-34.614,90.882-37.718v32.522h30V91.187
			c34.388,3.104,65.774,16.766,90.882,37.718l-24.821,24.821l21.213,21.213l24.821-24.822
			c20.953,25.108,34.614,56.494,37.718,90.882h-35.176v30h35.176C417.708,305.388,404.047,336.774,383.095,361.882z"/>
		<path d="M202.442,233.582l-2.487,156.311l109.602-111.475l2.487-156.311L202.442,233.582z M231.145,315.38l0.845-53.169
			l36.436,15.251L231.145,315.38z M280.01,249.789l-36.436-15.251l37.281-37.918L280.01,249.789z"/>
	</g>
</svg>
