<svg id="Capa_1" enable-background="new 0 0 511.833 511.833" height="512" viewBox="0 0 511.833 511.833" width="512" xmlns="http://www.w3.org/2000/svg"><path d="m466.833 0h-421.833c-24.813 0-45 20.187-45 45v421.833c0 24.813 20.187 45 45 45h421.833c24.813 0 45-20.187 45-45v-421.833c0-24.813-20.187-45-45-45zm15 466.833c0 8.271-6.729 15-15 15h-421.833c-8.271 0-15-6.729-15-15v-421.833c0-8.271 6.729-15 15-15h421.833c8.271 0 15 6.729 15 15z"/><path d="m61.408 450.425h389.018v-389.017h-389.018zm30-359.017h329.018v329.018h-329.018z"/><path d="m300.494 212.525-.395-1.135-44.182-81.898-44.182 81.898-.395 1.135c-4.985 14.326-2.831 30.359 5.761 42.89 8.571 12.499 22.111 19.958 37.142 20.466.556.019 1.114.028 1.674.028s1.119-.009 1.667-.028c15.038-.508 28.578-7.967 37.148-20.466 8.593-12.53 10.747-28.563 5.762-42.89zm-30.503 25.924c-3.121 4.552-8.012 7.267-13.426 7.45-.43.015-.859.015-1.303 0-5.407-.183-10.298-2.898-13.419-7.45-3.076-4.485-3.958-9.931-2.479-15.087l16.554-30.684 16.554 30.684c1.477 5.157.594 10.602-2.481 15.087z"/><path d="m218.163 301.229-44.182-81.898-44.182 81.898-.395 1.135c-4.985 14.326-2.831 30.359 5.761 42.89 8.571 12.499 22.111 19.958 37.161 20.467.549.018 1.101.028 1.655.028s1.106-.01 1.667-.028c15.038-.508 28.578-7.967 37.148-20.466 8.592-12.531 10.746-28.564 5.761-42.89zm-30.108 27.058c-3.121 4.552-8.012 7.267-13.407 7.449-.442.015-.904.014-1.322 0-5.407-.183-10.298-2.898-13.419-7.45-3.076-4.486-3.959-9.931-2.479-15.087l16.553-30.684 16.554 30.684c1.478 5.157.595 10.603-2.48 15.088z"/><path d="m382.035 301.229-44.182-81.898-44.182 81.898-.395 1.135c-4.985 14.326-2.831 30.359 5.761 42.89 8.571 12.499 22.111 19.958 37.161 20.466.549.018 1.101.028 1.655.028s1.106-.01 1.667-.028c15.038-.508 28.578-7.967 37.148-20.466 8.592-12.53 10.746-28.564 5.761-42.89zm-30.109 27.058c-3.121 4.552-8.012 7.267-13.407 7.449-.442.015-.904.014-1.322 0-5.407-.183-10.298-2.898-13.419-7.45-3.076-4.485-3.958-9.931-2.479-15.087l16.554-30.684 16.553 30.684c1.479 5.157.596 10.602-2.48 15.088z"/></svg>