<svg height="496pt" viewBox="0 0 496 496" width="496pt" xmlns="http://www.w3.org/2000/svg"><path d="m496 88.167969c0-12.550781-4.886719-24.367188-13.769531-33.246094l-41.140625-41.144531c-8.882813-8.890625-20.691406-13.777344-33.25-13.777344-12.3125 0-23.945313 4.726562-32.777344 13.304688l-27.605469 26.839843-.832031-.832031c-4.714844-4.71875-10.984375-7.3125-17.65625-7.3125-13.472656 0-24.410156 10.734375-24.878906 24.089844-13.355469.46875-24.089844 11.414062-24.089844 24.878906 0 6.574219 2.664062 13.007812 7.3125 17.65625l-134.746094 131c-4.421875-3.585938-9.824218-5.625-15.597656-5.625-13.472656 0-24.410156 10.734375-24.878906 24.089844-13.355469.46875-24.089844 11.414062-24.089844 24.878906 0 5.960938 2.28125 11.726562 6.144531 16.230469l-72.097656 128.167969 10.640625 10.632812-25.375 25.375c-4.648438 4.648438-7.3125 11.082031-7.3125 17.65625 0 13.769531 11.199219 24.96875 24.96875 24.96875 6.671875 0 12.941406-2.59375 17.65625-7.3125l25.375-25.375 10.632812 10.632812 128.160157-72.089843c4.527343 3.921875 10.183593 6.144531 16.238281 6.144531 13.472656 0 24.410156-10.734375 24.878906-24.089844 13.355469-.46875 24.089844-11.414062 24.089844-24.878906 0-5.6875-2.089844-11.183594-5.632812-15.597656l131.007812-134.746094c4.714844 4.71875 10.984375 7.3125 17.65625 7.3125 13.472656 0 24.410156-10.734375 24.878906-24.089844 13.355469-.46875 24.089844-11.414062 24.089844-24.878906 0-6.574219-2.664062-13.007812-7.3125-17.65625l-.832031-.832031 26.839843-27.597657c8.578126-8.824218 13.304688-20.464843 13.304688-32.777343zm-331.929688 152.59375 134.554688-130.824219 87.4375 87.4375-130.824219 134.554688zm-132.757812 236.613281c-1.695312 1.695312-3.945312 2.625-6.34375 2.625-4.945312 0-8.96875-4.023438-8.96875-8.96875 0-2.359375.960938-4.671875 2.625-6.34375l25.375-25.375 12.6875 12.6875zm10.640625-62.742188 63.855469-113.519531 89.085937 89.085938-113.519531 63.855469zm181.078125-22.632812c-2.398438 0-4.648438-.929688-6.34375-2.625l-110.0625-110.0625c-1.664062-1.671875-2.625-3.984375-2.625-6.34375 0-4.945312 4.023438-8.96875 8.96875-8.96875 2.398438 0 4.648438.929688 6.34375 2.625l110.0625 110.0625c1.664062 1.671875 2.625 3.984375 2.625 6.34375 0 4.945312-4.023438 8.96875-8.96875 8.96875zm24-24c-2.398438 0-4.648438-.929688-6.34375-2.625l-110.0625-110.0625c-1.664062-1.671875-2.625-3.984375-2.625-6.34375 0-4.945312 4.023438-8.96875 8.96875-8.96875 2.398438 0 4.648438.929688 6.34375 2.625l110.0625 110.0625c1.664062 1.671875 2.625 3.984375 2.625 6.34375 0 4.945312-4.023438 8.96875-8.96875 8.96875zm168-168c-2.398438 0-4.648438-.929688-6.34375-2.625l-110.0625-110.0625c-1.664062-1.671875-2.625-3.984375-2.625-6.34375 0-4.945312 4.023438-8.96875 8.96875-8.96875 2.398438 0 4.648438.929688 6.34375 2.625l110.0625 110.0625c1.664062 1.671875 2.625 3.984375 2.625 6.34375 0 4.945312-4.023438 8.96875-8.96875 8.96875zm24-24c-2.398438 0-4.648438-.929688-6.34375-2.625l-110.0625-110.0625c-1.664062-1.671875-2.625-3.984375-2.625-6.34375 0-4.945312 4.023438-8.96875 8.96875-8.96875 2.398438 0 4.648438.929688 6.34375 2.625l110.0625 110.0625c1.664062 1.671875 2.625 3.984375 2.625 6.34375 0 4.945312-4.023438 8.96875-8.96875 8.96875zm32.191406-66.214844-26.6875 27.445313-85.757812-85.765625 27.445312-26.6875c11.761719-11.433594 31.945313-11.296875 43.546875.3125l41.140625 41.140625c5.867188 5.859375 9.089844 13.640625 9.089844 21.9375 0 8.113281-3.121094 15.792969-8.777344 21.617187zm0 0"/></svg>