<svg id="Capa_1" enable-background="new 0 0 511.999 511.999" height="512" viewBox="0 0 511.999 511.999" width="512" xmlns="http://www.w3.org/2000/svg"><g><path d="m241 202.667v94.01c-19.843 6.36-34.25 24.979-34.25 46.906 0 27.157 22.093 49.25 49.25 49.25 27.156 0 49.25-22.093 49.25-49.25 0-21.927-14.407-40.546-34.25-46.906v-94.01zm15 160.166c-10.614 0-19.25-8.636-19.25-19.25s8.636-19.25 19.25-19.25 19.25 8.636 19.25 19.25-8.636 19.25-19.25 19.25z"/><path d="m511.969 307.5c-1.057-68.661-28.694-132.634-77.821-180.135-49.183-47.554-114.162-73.052-182.91-71.795-67.379 1.231-130.528 28.402-177.815 76.509-47.348 48.168-73.423 111.897-73.423 179.448 0 40.742 9.297 79.699 27.633 115.789 6.687 13.161 18.179 22.727 32.359 26.936 4.962 1.473 10.084 2.199 15.194 2.199 9.345 0 18.648-2.429 26.846-7.162 24.593-14.198 33.797-45.186 20.954-70.545-10.608-20.945-15.986-43.559-15.986-67.217 0-40.002 15.635-77.555 44.024-105.74 28.126-27.924 65.361-43.26 104.97-43.26.366 0 .739.001 1.105.004 39.731.286 77.057 16.186 105.101 44.771 28.065 28.606 43.262 66.263 42.789 106.035-.272 22.966-5.627 44.933-15.916 65.29-12.855 25.437-3.677 56.475 20.896 70.662 12.671 7.316 27.984 9.121 42.013 4.954 14.216-4.224 25.738-13.829 32.445-27.046 18.658-36.771 28.181-78.161 27.542-119.697zm-77.597-10.973c-1.781-21.39-7.369-42.039-16.437-61.173l41.087-23.722c12.877 26.247 20.56 54.974 22.492 84.895zm-193.372-163.386c-21.449 1.754-42.123 7.3-61.247 16.322l-23.402-40.534c25.859-12.858 54.472-20.896 84.65-22.9v47.112zm30-47.122c29.848 1.922 58.58 9.586 84.885 22.502l-23.702 41.053c-19.112-9.054-39.763-14.644-61.183-16.423zm-193.373 210.508h-47.11c2.016-30.133 10.054-58.748 22.919-84.63l40.51 23.388c-9.01 19.115-14.552 39.787-16.319 61.242zm9.405 126.78c-5.664 3.269-12.235 4.044-18.503 2.184-6.206-1.842-11.231-6.02-14.149-11.765-13.914-27.385-21.91-56.657-23.88-87.2h47.12c1.883 22.99 8.11 45.055 18.602 65.771 5.648 11.152 1.611 24.774-9.19 31.01zm42.855-238.81c-7.779 7.724-14.752 16.038-20.895 24.834l-40.462-23.361c16.447-24.391 37.511-45.466 61.905-61.929l23.363 40.467c-8.446 5.902-16.446 12.577-23.911 19.989zm228.224-19.831 23.748-41.133c11.106 7.446 21.631 15.919 31.435 25.399 11.641 11.256 21.901 23.57 30.721 36.724l-41.167 23.768c-5.704-8.142-12.12-15.883-19.232-23.132-7.918-8.07-16.46-15.286-25.505-21.626zm99.563 248.956c-2.94 5.796-7.996 10.009-14.236 11.863-6.258 1.86-12.815 1.085-18.468-2.177-10.793-6.231-14.8-19.914-9.121-31.15 10.439-20.657 16.637-42.683 18.521-65.631h47.104c-2.029 30.348-10.121 60.137-23.8 87.095z"/><path d="m183.913 426.473h144.174v30h-144.174z"/></g></svg>